<svg xmlns="http://www.w3.org/2000/svg" width="140" height="140">
    <rect width="100%" height="100%" fill="#4E85B6"/>
    <circle r="20.417" fill="none" stroke="#ddd" opacity=".055" stroke-width="5.833"/>
    <circle cx="140" r="20.417" fill="none" stroke="#ddd" opacity=".055" stroke-width="5.833"/>
    <circle cy="140" r="20.417" fill="none" stroke="#ddd" opacity=".055" stroke-width="5.833"/>
    <circle cx="140" cy="140" r="20.417" fill="none" stroke="#ddd" opacity=".055" stroke-width="5.833"/>
    <circle cx="23.333" r="20.417" fill="none" stroke="#ddd" opacity=".02" stroke-width="5.833"/>
    <circle cx="23.333" cy="140" r="20.417" fill="none" stroke="#ddd" opacity=".02" stroke-width="5.833"/>
    <circle cx="46.667" r="20.417" fill="none" stroke="#ddd" opacity=".072" stroke-width="5.833"/>
    <circle cx="46.667" cy="140" r="20.417" fill="none" stroke="#ddd" opacity=".072" stroke-width="5.833"/>
    <circle cx="70" r="20.417" fill="none" stroke="#ddd" opacity=".141" stroke-width="5.833"/>
    <circle cx="70" cy="140" r="20.417" fill="none" stroke="#ddd" opacity=".141" stroke-width="5.833"/>
    <circle cx="93.333" r="20.417" fill="none" stroke="#ddd" opacity=".02" stroke-width="5.833"/>
    <circle cx="93.333" cy="140" r="20.417" fill="none" stroke="#ddd" opacity=".02" stroke-width="5.833"/>
    <circle cx="116.667" r="20.417" fill="none" stroke="#ddd" opacity=".141" stroke-width="5.833"/>
    <circle cx="116.667" cy="140" r="20.417" fill="none" stroke="#ddd" opacity=".141" stroke-width="5.833"/>
    <circle cy="23.333" r="20.417" fill="none" stroke="#ddd" opacity=".089" stroke-width="5.833"/>
    <circle cx="140" cy="23.333" r="20.417" fill="none" stroke="#ddd" opacity=".089" stroke-width="5.833"/>
    <circle cx="23.333" cy="23.333" r="20.417" fill="none" stroke="#222" opacity=".081" stroke-width="5.833"/>
    <circle cx="46.667" cy="23.333" r="20.417" fill="none" stroke="#222" opacity=".115" stroke-width="5.833"/>
    <circle cx="70" cy="23.333" r="20.417" fill="none" stroke="#ddd" opacity=".055" stroke-width="5.833"/>
    <circle cx="93.333" cy="23.333" r="20.417" fill="none" stroke="#ddd" opacity=".124" stroke-width="5.833"/>
    <circle cx="116.667" cy="23.333" r="20.417" fill="none" stroke="#ddd" opacity=".141" stroke-width="5.833"/>
    <circle cy="46.667" r="20.417" fill="none" stroke="#ddd" opacity=".089" stroke-width="5.833"/>
    <circle cx="140" cy="46.667" r="20.417" fill="none" stroke="#ddd" opacity=".089" stroke-width="5.833"/>
    <circle cx="23.333" cy="46.667" r="20.417" fill="none" stroke="#ddd" opacity=".141" stroke-width="5.833"/>
    <circle cx="46.667" cy="46.667" r="20.417" fill="none" stroke="#ddd" opacity=".072" stroke-width="5.833"/>
    <circle cx="70" cy="46.667" r="20.417" fill="none" stroke="#ddd" opacity=".124" stroke-width="5.833"/>
    <circle cx="93.333" cy="46.667" r="20.417" fill="none" stroke="#ddd" opacity=".02" stroke-width="5.833"/>
    <circle cx="116.667" cy="46.667" r="20.417" fill="none" stroke="#222" opacity=".115" stroke-width="5.833"/>
    <circle cy="70" r="20.417" fill="none" stroke="#ddd" opacity=".089" stroke-width="5.833"/>
    <circle cx="140" cy="70" r="20.417" fill="none" stroke="#ddd" opacity=".089" stroke-width="5.833"/>
    <circle cx="23.333" cy="70" r="20.417" fill="none" stroke="#222" opacity=".081" stroke-width="5.833"/>
    <circle cx="46.667" cy="70" r="20.417" fill="none" stroke="#ddd" opacity=".072" stroke-width="5.833"/>
    <circle cx="70" cy="70" r="20.417" fill="none" stroke="#ddd" opacity=".072" stroke-width="5.833"/>
    <circle cx="93.333" cy="70" r="20.417" fill="none" stroke="#222" opacity=".081" stroke-width="5.833"/>
    <circle cx="116.667" cy="70" r="20.417" fill="none" stroke="#222" opacity=".15" stroke-width="5.833"/>
    <circle cy="93.333" r="20.417" fill="none" stroke="#ddd" opacity=".107" stroke-width="5.833"/>
    <circle cx="140" cy="93.333" r="20.417" fill="none" stroke="#ddd" opacity=".107" stroke-width="5.833"/>
    <circle cx="23.333" cy="93.333" r="20.417" fill="none" stroke="#222" opacity=".063" stroke-width="5.833"/>
    <circle cx="46.667" cy="93.333" r="20.417" fill="none" stroke="#222" opacity=".081" stroke-width="5.833"/>
    <circle cx="70" cy="93.333" r="20.417" fill="none" stroke="#222" opacity=".098" stroke-width="5.833"/>
    <circle cx="93.333" cy="93.333" r="20.417" fill="none" stroke="#ddd" opacity=".02" stroke-width="5.833"/>
    <circle cx="116.667" cy="93.333" r="20.417" fill="none" stroke="#222" opacity=".063" stroke-width="5.833"/>
    <circle cy="116.667" r="20.417" fill="none" stroke="#222" opacity=".029" stroke-width="5.833"/>
    <circle cx="140" cy="116.667" r="20.417" fill="none" stroke="#222" opacity=".029" stroke-width="5.833"/>
    <circle cx="23.333" cy="116.667" r="20.417" fill="none" stroke="#222" opacity=".081" stroke-width="5.833"/>
    <circle cx="46.667" cy="116.667" r="20.417" fill="none" stroke="#ddd" opacity=".089" stroke-width="5.833"/>
    <circle cx="70" cy="116.667" r="20.417" fill="none" stroke="#ddd" opacity=".02" stroke-width="5.833"/>
    <circle cx="93.333" cy="116.667" r="20.417" fill="none" stroke="#ddd" opacity=".107" stroke-width="5.833"/>
    <circle cx="116.667" cy="116.667" r="20.417" fill="none" stroke="#222" opacity=".133" stroke-width="5.833"/>
</svg>
