<svg xmlns="http://www.w3.org/2000/svg" width="186" height="186">
    <rect width="100%" height="100%" fill="#6DC440"/>
    <g fill="#ddd" opacity=".124">
        <path d="M15.556-28.453l15.557 15.557-46.67 46.669-15.556-15.557z"/>
        <path d="M-15.556-28.453l46.669 46.67-15.557 15.556-46.669-46.67z"/>
    </g>
    <g fill="#ddd" opacity=".124">
        <path d="M202.27-28.453l15.557 15.557-46.67 46.669-15.556-15.557z"/>
        <path d="M171.158-28.453l46.669 46.67-15.557 15.556-46.669-46.67z"/>
    </g>
    <g fill="#ddd" opacity=".124">
        <path d="M15.556 158.261l15.557 15.557-46.67 46.669-15.556-15.557z"/>
        <path d="M-15.556 158.261l46.669 46.67-15.557 15.556-46.669-46.67z"/>
    </g>
    <g fill="#ddd" opacity=".124">
        <path d="M202.27 158.261l15.557 15.557-46.67 46.669-15.556-15.557z"/>
        <path d="M171.158 158.261l46.669 46.67-15.557 15.556-46.669-46.67z"/>
    </g>
    <g fill="#222" opacity=".15">
        <path d="M46.675-12.893L62.232 2.663l-46.67 46.67L.007 33.775z"/>
        <path d="M15.563-12.893l46.669 46.669-15.557 15.556L.006 2.663z"/>
    </g>
    <g fill="#222" opacity=".15">
        <path d="M46.675 173.82l15.557 15.557-46.67 46.67L.007 220.49z"/>
        <path d="M15.563 173.82l46.669 46.67-15.557 15.556L.006 189.377z"/>
    </g>
    <g fill="#222" opacity=".133">
        <path d="M77.794-28.453l15.557 15.557-46.67 46.669-15.556-15.557z"/>
        <path d="M46.682-28.453l46.669 46.67-15.557 15.556-46.669-46.67z"/>
    </g>
    <g fill="#222" opacity=".133">
        <path d="M77.794 158.261l15.557 15.557-46.67 46.669-15.556-15.557z"/>
        <path d="M46.682 158.261l46.669 46.67-15.557 15.556-46.669-46.67z"/>
    </g>
    <g fill="#222" opacity=".098">
        <path d="M108.913-12.893L124.47 2.663 77.8 49.333 62.245 33.775z"/>
        <path d="M77.8-12.893l46.67 46.669-15.557 15.556L62.244 2.663z"/>
    </g>
    <g fill="#222" opacity=".098">
        <path d="M108.913 173.82l15.557 15.557-46.67 46.67-15.556-15.557z"/>
        <path d="M77.8 173.82l46.67 46.67-15.557 15.556-46.669-46.669z"/>
    </g>
    <g fill="#222" opacity=".133">
        <path d="M140.032-28.453l15.557 15.557-46.67 46.669-15.556-15.557z"/>
        <path d="M108.92-28.453l46.669 46.67-15.557 15.556-46.669-46.67z"/>
    </g>
    <g fill="#222" opacity=".133">
        <path d="M140.032 158.261l15.557 15.557-46.67 46.669-15.556-15.557z"/>
        <path d="M108.92 158.261l46.669 46.67-15.557 15.556-46.669-46.67z"/>
    </g>
    <g fill="#ddd" opacity=".037">
        <path d="M171.151-12.893l15.557 15.556-46.67 46.67-15.556-15.557z"/>
        <path d="M140.039-12.893l46.669 46.669-15.557 15.556-46.669-46.669z"/>
    </g>
    <g fill="#ddd" opacity=".037">
        <path d="M171.151 173.82l15.557 15.557-46.67 46.67-15.556-15.557z"/>
        <path d="M140.039 173.82l46.669 46.67-15.557 15.556-46.669-46.669z"/>
    </g>
    <g fill="#ddd" opacity=".02">
        <path d="M15.556 2.666l15.557 15.557-46.67 46.669-15.556-15.557z"/>
        <path d="M-15.556 2.666l46.669 46.67-15.557 15.556-46.669-46.67z"/>
    </g>
    <g fill="#ddd" opacity=".02">
        <path d="M202.27 2.666l15.557 15.557-46.67 46.669-15.556-15.557z"/>
        <path d="M171.158 2.666l46.669 46.67-15.557 15.556-46.669-46.67z"/>
    </g>
    <g fill="#ddd" opacity=".02">
        <path d="M46.675 18.226l15.557 15.556-46.67 46.67L.007 64.894z"/>
        <path d="M15.563 18.226l46.669 46.669-15.557 15.556L.006 33.782z"/>
    </g>
    <g fill="#222" opacity=".081">
        <path d="M77.794 2.666l15.557 15.557-46.67 46.669-15.556-15.557z"/>
        <path d="M46.682 2.666l46.669 46.67-15.557 15.556-46.669-46.67z"/>
    </g>
    <g fill="#222" opacity=".046">
        <path d="M108.913 18.226l15.557 15.556-46.67 46.67-15.556-15.557z"/>
        <path d="M77.8 18.226l46.67 46.669-15.557 15.556-46.669-46.669z"/>
    </g>
    <g fill="#ddd" opacity=".141">
        <path d="M140.032 2.666l15.557 15.557-46.67 46.669-15.556-15.557z"/>
        <path d="M108.92 2.666l46.669 46.67-15.557 15.556-46.669-46.67z"/>
    </g>
    <g fill="#222" opacity=".029">
        <path d="M171.151 18.226l15.557 15.556-46.67 46.67-15.556-15.557z"/>
        <path d="M140.039 18.226l46.669 46.669-15.557 15.556-46.669-46.669z"/>
    </g>
    <g fill="#222" opacity=".063">
        <path d="M15.556 33.785l15.557 15.557-46.67 46.669-15.556-15.557z"/>
        <path d="M-15.556 33.785l46.669 46.67L15.556 96.01l-46.669-46.67z"/>
    </g>
    <g fill="#222" opacity=".063">
        <path d="M202.27 33.785l15.557 15.557-46.67 46.669-15.556-15.557z"/>
        <path d="M171.158 33.785l46.669 46.67L202.27 96.01l-46.669-46.67z"/>
    </g>
    <g fill="#222" opacity=".15">
        <path d="M46.675 49.345L62.232 64.9l-46.67 46.67L.007 96.013z"/>
        <path d="M15.563 49.345l46.669 46.669-15.557 15.556L.006 64.901z"/>
    </g>
    <g fill="#222" opacity=".115">
        <path d="M77.794 33.785l15.557 15.557L46.68 96.01 31.126 80.454z"/>
        <path d="M46.682 33.785l46.669 46.67L77.794 96.01 31.125 49.34z"/>
    </g>
    <g fill="#222" opacity=".098">
        <path d="M108.913 49.345L124.47 64.9l-46.67 46.67-15.556-15.557z"/>
        <path d="M77.8 49.345l46.67 46.669-15.557 15.556-46.669-46.669z"/>
    </g>
    <g fill="#222" opacity=".115">
        <path d="M140.032 33.785l15.557 15.557-46.67 46.669-15.556-15.557z"/>
        <path d="M108.92 33.785l46.669 46.67-15.557 15.556-46.669-46.67z"/>
    </g>
    <g fill="#ddd" opacity=".02">
        <path d="M171.151 49.345L186.708 64.9l-46.67 46.67-15.556-15.557z"/>
        <path d="M140.039 49.345l46.669 46.669-15.557 15.556-46.669-46.669z"/>
    </g>
    <g fill="#222" opacity=".133">
        <path d="M15.556 64.904l15.557 15.557-46.67 46.669-15.556-15.557z"/>
        <path d="M-15.556 64.904l46.669 46.67-15.557 15.556-46.669-46.67z"/>
    </g>
    <g fill="#222" opacity=".133">
        <path d="M202.27 64.904l15.557 15.557-46.67 46.669-15.556-15.557z"/>
        <path d="M171.158 64.904l46.669 46.67-15.557 15.556-46.669-46.67z"/>
    </g>
    <g fill="#ddd" opacity=".02">
        <path d="M46.675 80.464L62.232 96.02l-46.67 46.67L.007 127.132z"/>
        <path d="M15.563 80.464l46.669 46.669-15.557 15.556L.006 96.02z"/>
    </g>
    <g fill="#222" opacity=".046">
        <path d="M77.794 64.904l15.557 15.557-46.67 46.669-15.556-15.557z"/>
        <path d="M46.682 64.904l46.669 46.67-15.557 15.556-46.669-46.67z"/>
    </g>
    <g fill="#222" opacity=".063">
        <path d="M108.913 80.464L124.47 96.02 77.8 142.69l-15.556-15.557z"/>
        <path d="M77.8 80.464l46.67 46.669-15.557 15.556L62.244 96.02z"/>
    </g>
    <g fill="#222" opacity=".063">
        <path d="M140.032 64.904l15.557 15.557-46.67 46.669-15.556-15.557z"/>
        <path d="M108.92 64.904l46.669 46.67-15.557 15.556-46.669-46.67z"/>
    </g>
    <g fill="#ddd" opacity=".02">
        <path d="M171.151 80.464l15.557 15.556-46.67 46.67-15.556-15.557z"/>
        <path d="M140.039 80.464l46.669 46.669-15.557 15.556-46.669-46.669z"/>
    </g>
    <g fill="#ddd" opacity=".072">
        <path d="M15.556 96.023l15.557 15.557-46.67 46.669-15.556-15.557z"/>
        <path d="M-15.556 96.023l46.669 46.67-15.557 15.556-46.669-46.67z"/>
    </g>
    <g fill="#ddd" opacity=".072">
        <path d="M202.27 96.023l15.557 15.557-46.67 46.669-15.556-15.557z"/>
        <path d="M171.158 96.023l46.669 46.67-15.557 15.556-46.669-46.67z"/>
    </g>
    <g fill="#ddd" opacity=".107">
        <path d="M46.675 111.583l15.557 15.556-46.67 46.67L.007 158.251z"/>
        <path d="M15.563 111.583l46.669 46.669-15.557 15.556L.006 127.14z"/>
    </g>
    <g fill="#ddd" opacity=".107">
        <path d="M77.794 96.023l15.557 15.557-46.67 46.669-15.556-15.557z"/>
        <path d="M46.682 96.023l46.669 46.67-15.557 15.556-46.669-46.67z"/>
    </g>
    <g fill="#222" opacity=".133">
        <path d="M108.913 111.583l15.557 15.556-46.67 46.67-15.556-15.557z"/>
        <path d="M77.8 111.583l46.67 46.669-15.557 15.556-46.669-46.669z"/>
    </g>
    <g fill="#222" opacity=".063">
        <path d="M140.032 96.023l15.557 15.557-46.67 46.669-15.556-15.557z"/>
        <path d="M108.92 96.023l46.669 46.67-15.557 15.556-46.669-46.67z"/>
    </g>
    <g fill="#ddd" opacity=".037">
        <path d="M171.151 111.583l15.557 15.556-46.67 46.67-15.556-15.557z"/>
        <path d="M140.039 111.583l46.669 46.669-15.557 15.556-46.669-46.669z"/>
    </g>
    <g fill="#ddd" opacity=".124">
        <path d="M15.556 127.142L31.113 142.7l-46.67 46.669-15.556-15.557z"/>
        <path d="M-15.556 127.142l46.669 46.67-15.557 15.556-46.669-46.67z"/>
    </g>
    <g fill="#ddd" opacity=".124">
        <path d="M202.27 127.142l15.557 15.557-46.67 46.669-15.556-15.557z"/>
        <path d="M171.158 127.142l46.669 46.67-15.557 15.556-46.669-46.67z"/>
    </g>
    <g fill="#ddd" opacity=".124">
        <path d="M15.556-59.572l15.557 15.557-46.67 46.669-15.556-15.557z"/>
        <path d="M-15.556-59.572l46.669 46.67L15.556 2.653l-46.669-46.67z"/>
    </g>
    <g fill="#222" opacity=".15">
        <path d="M46.675 142.702l15.557 15.556-46.67 46.67L.007 189.37z"/>
        <path d="M15.563 142.702l46.669 46.669-15.557 15.556L.006 158.258z"/>
    </g>
    <g fill="#222" opacity=".15">
        <path d="M46.675-44.012l15.557 15.556-46.67 46.67L.007 2.656z"/>
        <path d="M15.563-44.012L62.232 2.657 46.675 18.213.006-28.456z"/>
    </g>
    <g fill="#222" opacity=".098">
        <path d="M77.794 127.142L93.351 142.7l-46.67 46.669-15.556-15.557z"/>
        <path d="M46.682 127.142l46.669 46.67-15.557 15.556-46.669-46.67z"/>
    </g>
    <g fill="#222" opacity=".098">
        <path d="M77.794-59.572l15.557 15.557L46.68 2.654 31.126-12.903z"/>
        <path d="M46.682-59.572l46.669 46.67L77.794 2.653l-46.669-46.67z"/>
    </g>
    <g fill="#ddd" opacity=".107">
        <path d="M108.913 142.702l15.557 15.556-46.67 46.67-15.556-15.557z"/>
        <path d="M77.8 142.702l46.67 46.669-15.557 15.556-46.669-46.669z"/>
    </g>
    <g fill="#ddd" opacity=".107">
        <path d="M108.913-44.012l15.557 15.556-46.67 46.67L62.245 2.656z"/>
        <path d="M77.8-44.012l46.67 46.669-15.557 15.556-46.669-46.669z"/>
    </g>
    <g fill="#ddd" opacity=".037">
        <path d="M140.032 127.142L155.59 142.7l-46.67 46.669-15.556-15.557z"/>
        <path d="M108.92 127.142l46.669 46.67-15.557 15.556-46.669-46.67z"/>
    </g>
    <g fill="#ddd" opacity=".037">
        <path d="M140.032-59.572l15.557 15.557-46.67 46.669-15.556-15.557z"/>
        <path d="M108.92-59.572l46.669 46.67-15.557 15.556-46.669-46.67z"/>
    </g>
    <g fill="#ddd" opacity=".055">
        <path d="M171.151 142.702l15.557 15.556-46.67 46.67-15.556-15.557z"/>
        <path d="M140.039 142.702l46.669 46.669-15.557 15.556-46.669-46.669z"/>
    </g>
    <g fill="#ddd" opacity=".055">
        <path d="M171.151-44.012l15.557 15.556-46.67 46.67-15.556-15.557z"/>
        <path d="M140.039-44.012l46.669 46.669-15.557 15.556-46.669-46.669z"/>
    </g>
</svg>
